<?xml version="1.0" encoding="UTF-8"?>
<svg width="15px" height="15px" viewBox="0 0 15 15" version="1.1" xmlns="http://www.w3.org/2000/svg" xmlns:xlink="http://www.w3.org/1999/xlink">
    <title>下载</title>
    <defs>
        <filter id="filter-1">
            <feColorMatrix in="SourceGraphic" type="matrix" values="0 0 0 0 0.250980 0 0 0 0 0.423529 0 0 0 0 1.000000 0 0 0 1.000000 0"></feColorMatrix>
        </filter>
    </defs>
    <g id="医疗机构监管数据" stroke="none" stroke-width="1" fill="none" fill-rule="evenodd">
        <g id="文件导入-数据明细" transform="translate(-839.000000, -729.000000)">
            <g id="下载" transform="translate(288.000000, 168.000000)" filter="url(#filter-1)">
                <g transform="translate(551.858565, 562.000000)">
                    <path d="M6.92825291,9.02980627 L9.07250788,6.75957112 C9.23769288,6.58796813 9.50551068,6.58796813 9.67069568,6.75957112 C9.83588068,6.93117412 9.83588068,7.20939755 9.67069568,7.38100055 L6.84668184,10.3574055 C6.65705121,10.5475315 6.35655362,10.5475315 6.16692298,10.3574055 L3.32931397,7.38806224 C3.222458,7.27705457 3.18072599,7.11525735 3.21983799,6.96361805 C3.25894998,6.81197874 3.37296394,6.69353496 3.51893189,6.65290333 C3.66489985,6.6122717 3.82064581,6.65562514 3.92750177,6.76663282 L6.07175674,9.03686797 L6.07175674,3.31346248 C6.05089277,3.14245135 6.12700097,2.97431043 6.26709007,2.88192523 C6.40717916,2.78954004 6.5860329,2.78954004 6.72612199,2.88192523 C6.86621108,2.97431043 6.94231929,3.14245135 6.92145532,3.31346248 L6.92825291,9.02980627 Z" id="形状" stroke="#979797" stroke-width="0.4" fill="#5A5A68" fill-rule="nonzero"></path>
                    <circle id="椭圆形" stroke="#979797" cx="6.5" cy="6.5" r="6.5"></circle>
                </g>
            </g>
        </g>
    </g>
</svg>